  0
SECTION
  2
HEADER
  9
$ACADVER
  1
AC1014
  9
$HANDSEED
  5
FFFF
  9
$INSUNITS
 70
     0
  9
$MEASUREMENT
 70
     1
  0
ENDSEC
  0
SECTION
  2
TABLES
  0
TABLE
  2
VPORT
  5
8
330
0
100
AcDbSymbolTable
 70
     4
  0
VPORT
  5
2E
330
8
100
AcDbSymbolTableRecord
100
AcDbViewportTableRecord
  2
*ACTIVE
 70
     0
 10
0.0
 20
0.0
 11
1.0
 21
1.0
 12
210.0
 22
148.5
 13
0.0
 23
0.0
 14
10.0
 24
10.0
 15
10.0
 25
10.0
 16
0.0
 26
0.0
 36
1.0
 17
0.0
 27
0.0
 37
0.0
 40
341.0
 41
1.24
 42
50.0
 43
0.0
 44
0.0
 50
0.0
 51
0.0
 71
     0
 72
   100
 73
     1
 74
     3
 75
     0
 76
     0
 77
     0
 78
     0
  0
ENDTAB
  0
TABLE
  2
LTYPE
  5
5
330
0
100
AcDbSymbolTable
 70
     1
  0
LTYPE
  5
14
330
5
100
AcDbSymbolTableRecord
100
AcDbLinetypeTableRecord
  2
BYBLOCK
 70
     0
  3

 72
    65
 73
     0
 40
0.0
  0
LTYPE
  5
15
330
5
100
AcDbSymbolTableRecord
100
AcDbLinetypeTableRecord
  2
BYLAYER
 70
     0
  3

 72
    65
 73
     0
 40
0.0
  0
LTYPE
  5
16
330
5
100
AcDbSymbolTableRecord
100
AcDbLinetypeTableRecord
  2
CONTINUOUS
 70
     0
  3
Solid line
 72
    65
 73
     0
 40
0.0
  0
ENDTAB
  0
TABLE
  2
LAYER
  5
2
100
AcDbSymbolTable
 70
1
  0
LAYER
  5
50
100
AcDbSymbolTableRecord
100
AcDbLayerTableRecord
  2
0
 70
0
  6
CONTINUOUS
  0
ENDTAB
  0
TABLE
  2
STYLE
  5
3
330
0
100
AcDbSymbolTable
 70
     1
  0
STYLE
  5
11
330
3
100
AcDbSymbolTableRecord
100
AcDbTextStyleTableRecord
  2
STANDARD
 70
     0
 40
0.0
 41
1.0
 50
0.0
 71
     0
 42
2.5
  3
txt
  4

  0
ENDTAB
  0
TABLE
  2
VIEW
  5
6
330
0
100
AcDbSymbolTable
 70
     0
  0
ENDTAB
  0
TABLE
  2
UCS
  5
7
330
0
100
AcDbSymbolTable
 70
     0
  0
ENDTAB
  0
TABLE
  2
APPID
  5
9
330
0
100
AcDbSymbolTable
 70
     2
  0
APPID
  5
12
330
9
100
AcDbSymbolTableRecord
100
AcDbRegAppTableRecord
  2
ACAD
 70
     0
  0
ENDTAB
  0
TABLE
  2
DIMSTYLE
  5
A
330
0
100
AcDbSymbolTable
 70
     1
  0
DIMSTYLE
105
27
330
A
100
AcDbSymbolTableRecord
100
AcDbDimStyleTableRecord
  2
ISO-25
 70
     0
  3

  4

  5

  6

  7

 40
1.0
 41
2.5
 42
0.625
 43
3.75
 44
1.25
 45
0.0
 46
0.0
 47
0.0
 48
0.0
140
2.5
141
2.5
142
0.0
143
0.03937007874016
144
1.0
145
0.0
146
1.0
147
0.625
 71
     0
 72
     0
 73
     0
 74
     0
 75
     0
 76
     0
 77
     1
 78
     8
170
     0
171
     3
172
     1
173
     0
174
     0
175
     0
176
     0
177
     0
178
     0
270
     2
271
     2
272
     2
273
     2
274
     3
340
11
275
     0
280
     0
281
     0
282
     0
283
     0
284
     8
285
     0
286
     0
287
     3
288
     0
  0
ENDTAB
  0
TABLE
  2
BLOCK_RECORD
  5
1
330
0
100
AcDbSymbolTable
 70
     1
  0
BLOCK_RECORD
  5
1F
330
1
100
AcDbSymbolTableRecord
100
AcDbBlockTableRecord
  2
*MODEL_SPACE
  0
BLOCK_RECORD
  5
1B
330
1
100
AcDbSymbolTableRecord
100
AcDbBlockTableRecord
  2
*PAPER_SPACE
  0
ENDTAB
  0
ENDSEC
  0
SECTION
  2
BLOCKS
  0
BLOCK
  5
20
330
1F
100
AcDbEntity
  8
0
100
AcDbBlockBegin
  2
*MODEL_SPACE
 70
     0
 10
0.0
 20
0.0
 30
0.0
  3
*MODEL_SPACE
  1

  0
ENDBLK
  5
21
330
1F
100
AcDbEntity
  8
0
100
AcDbBlockEnd
  0
BLOCK
  5
1C
330
1B
100
AcDbEntity
 67
     1
  8
0
100
AcDbBlockBegin
  2
*PAPER_SPACE
  1

  0
ENDBLK
  5
1D
330
1B
100
AcDbEntity
 67
     1
  8
0
100
AcDbBlockEnd
  0
ENDSEC
  0
SECTION
  2
ENTITIES
  0
SPLINE
  5
100
100
AcDbEntity
  8
0
 62
7
100
AcDbSpline
 70
8
 71
3
 72
8
 73
4
 74
0
 40
0
 40
0
 40
0
 40
0
 40
1
 40
1
 40
1
 40
1
 10
190.855881
 20
159.846313
 30
0.0
 10
193.233826
 20
155.690735
 30
0.0
 10
195.562225
 20
155.581421
 30
0.0
 10
198.147186
 20
159.188110
 30
0.0
  0
SPLINE
  5
101
100
AcDbEntity
  8
0
 62
7
100
AcDbSpline
 70
8
 71
3
 72
8
 73
4
 74
0
 40
0
 40
0
 40
0
 40
0
 40
1
 40
1
 40
1
 40
1
 10
198.147186
 20
159.188110
 30
0.0
 10
198.724030
 20
159.992950
 30
0.0
 10
199.491547
 20
160.663605
 30
0.0
 10
200.188095
 20
161.379669
 30
0.0
  0
SPLINE
  5
102
100
AcDbEntity
  8
0
 62
7
100
AcDbSpline
 70
8
 71
3
 72
8
 73
4
 74
0
 40
0
 40
0
 40
0
 40
0
 40
1
 40
1
 40
1
 40
1
 10
200.188095
 20
161.379669
 30
0.0
 10
202.120377
 20
163.366150
 30
0.0
 10
204.342407
 20
163.557251
 30
0.0
 10
206.463425
 20
161.923706
 30
0.0
  0
SPLINE
  5
103
100
AcDbEntity
  8
0
 62
7
100
AcDbSpline
 70
8
 71
3
 72
8
 73
4
 74
0
 40
0
 40
0
 40
0
 40
0
 40
1
 40
1
 40
1
 40
1
 10
206.463425
 20
161.923706
 30
0.0
 10
208.645081
 20
160.243439
 30
0.0
 10
208.746109
 20
157.999329
 30
0.0
 10
207.337387
 20
155.697113
 30
0.0
  0
SPLINE
  5
104
100
AcDbEntity
  8
0
 62
7
100
AcDbSpline
 70
8
 71
3
 72
8
 73
4
 74
0
 40
0
 40
0
 40
0
 40
0
 40
1
 40
1
 40
1
 40
1
 10
207.337387
 20
155.697113
 30
0.0
 10
200.582657
 20
144.658081
 30
0.0
 10
191.899597
 20
142.861176
 30
0.0
 10
183.750778
 20
153.637665
 30
0.0
  0
SPLINE
  5
105
100
AcDbEntity
  8
0
 62
7
100
AcDbSpline
 70
8
 71
3
 72
8
 73
4
 74
0
 40
0
 40
0
 40
0
 40
0
 40
1
 40
1
 40
1
 40
1
 10
183.750778
 20
153.637665
 30
0.0
 10
173.138412
 20
167.672211
 30
0.0
 10
166.814072
 20
183.677155
 30
0.0
 10
162.716919
 20
200.639679
 30
0.0
  0
SPLINE
  5
106
100
AcDbEntity
  8
0
 62
7
100
AcDbSpline
 70
8
 71
3
 72
8
 73
4
 74
0
 40
0
 40
0
 40
0
 40
0
 40
1
 40
1
 40
1
 40
1
 10
162.716919
 20
200.639679
 30
0.0
 10
159.446823
 20
214.178101
 30
0.0
 10
156.574142
 20
227.880066
 30
0.0
 10
155.947052
 20
241.755936
 30
0.0
  0
SPLINE
  5
107
100
AcDbEntity
  8
0
 62
7
100
AcDbSpline
 70
8
 71
3
 72
8
 73
4
 74
0
 40
0
 40
0
 40
0
 40
0
 40
1
 40
1
 40
1
 40
1
 10
155.947052
 20
241.755936
 30
0.0
 10
155.470657
 20
252.296997
 30
0.0
 10
155.643570
 20
262.937622
 30
0.0
 10
156.014206
 20
273.557602
 30
0.0
  0
SPLINE
  5
108
100
AcDbEntity
  8
0
 62
7
100
AcDbSpline
 70
8
 71
3
 72
8
 73
4
 74
0
 40
0
 40
0
 40
0
 40
0
 40
1
 40
1
 40
1
 40
1
 10
156.014206
 20
273.557602
 30
0.0
 10
156.586105
 20
289.945084
 30
0.0
 10
159.870377
 20
305.696915
 30
0.0
 10
164.178955
 20
321.350327
 30
0.0
  0
SPLINE
  5
109
100
AcDbEntity
  8
0
 62
7
100
AcDbSpline
 70
8
 71
3
 72
8
 73
4
 74
0
 40
0
 40
0
 40
0
 40
0
 40
1
 40
1
 40
1
 40
1
 10
164.178955
 20
321.350327
 30
0.0
 10
167.658661
 20
333.992401
 30
0.0
 10
174.169510
 20
344.824203
 30
0.0
 10
183.648178
 20
353.923508
 30
0.0
  0
SPLINE
  5
10a
100
AcDbEntity
  8
0
 62
7
100
AcDbSpline
 70
8
 71
3
 72
8
 73
4
 74
0
 40
0
 40
0
 40
0
 40
0
 40
1
 40
1
 40
1
 40
1
 10
183.648178
 20
353.923508
 30
0.0
 10
192.666779
 20
362.581161
 30
0.0
 10
207.858826
 20
362.010651
 30
0.0
 10
218.153381
 20
352.826263
 30
0.0
  0
SPLINE
  5
10b
100
AcDbEntity
  8
0
 62
7
100
AcDbSpline
 70
8
 71
3
 72
8
 73
4
 74
0
 40
0
 40
0
 40
0
 40
0
 40
1
 40
1
 40
1
 40
1
 10
218.153381
 20
352.826263
 30
0.0
 10
225.711121
 20
346.083527
 30
0.0
 10
230.342499
 20
337.519989
 30
0.0
 10
234.061508
 20
328.421753
 30
0.0
  0
SPLINE
  5
10c
100
AcDbEntity
  8
0
 62
7
100
AcDbSpline
 70
8
 71
3
 72
8
 73
4
 74
0
 40
0
 40
0
 40
0
 40
0
 40
1
 40
1
 40
1
 40
1
 10
234.061508
 20
328.421753
 30
0.0
 10
237.644073
 20
319.657349
 30
0.0
 10
240.771271
 20
310.693344
 30
0.0
 10
242.767715
 20
301.396317
 30
0.0
  0
SPLINE
  5
10d
100
AcDbEntity
  8
0
 62
7
100
AcDbSpline
 70
8
 71
3
 72
8
 73
4
 74
0
 40
0
 40
0
 40
0
 40
0
 40
1
 40
1
 40
1
 40
1
 10
242.767715
 20
301.396317
 30
0.0
 10
243.517487
 20
297.904785
 30
0.0
 10
245.007339
 20
295.590393
 30
0.0
 10
248.915588
 20
294.529709
 30
0.0
  0
SPLINE
  5
10e
100
AcDbEntity
  8
0
 62
7
100
AcDbSpline
 70
8
 71
3
 72
8
 73
4
 74
0
 40
0
 40
0
 40
0
 40
0
 40
1
 40
1
 40
1
 40
1
 10
248.915588
 20
294.529709
 30
0.0
 10
254.719879
 20
292.954437
 30
0.0
 10
258.670654
 20
288.387863
 30
0.0
 10
262.751678
 20
284.208344
 30
0.0
  0
SPLINE
  5
10f
100
AcDbEntity
  8
0
 62
7
100
AcDbSpline
 70
8
 71
3
 72
8
 73
4
 74
0
 40
0
 40
0
 40
0
 40
0
 40
1
 40
1
 40
1
 40
1
 10
262.751678
 20
284.208344
 30
0.0
 10
264.584351
 20
282.331421
 30
0.0
 10
266.205536
 20
280.071838
 30
0.0
 10
269.608368
 20
279.840271
 30
0.0
  0
SPLINE
  5
110
100
AcDbEntity
  8
0
 62
7
100
AcDbSpline
 70
8
 71
3
 72
8
 73
4
 74
0
 40
0
 40
0
 40
0
 40
0
 40
1
 40
1
 40
1
 40
1
 10
269.608368
 20
279.840271
 30
0.0
 10
274.735626
 20
286.262268
 30
0.0
 10
276.300873
 20
294.382797
 30
0.0
 10
278.602905
 20
302.091644
 30
0.0
  0
SPLINE
  5
111
100
AcDbEntity
  8
0
 62
7
100
AcDbSpline
 70
8
 71
3
 72
8
 73
4
 74
0
 40
0
 40
0
 40
0
 40
0
 40
1
 40
1
 40
1
 40
1
 10
278.602905
 20
302.091644
 30
0.0
 10
287.730347
 20
332.657257
 30
0.0
 10
296.180237
 20
363.440216
 30
0.0
 10
308.320526
 20
393.015503
 30
0.0
  0
SPLINE
  5
112
100
AcDbEntity
  8
0
 62
7
100
AcDbSpline
 70
8
 71
3
 72
8
 73
4
 74
0
 40
0
 40
0
 40
0
 40
0
 40
1
 40
1
 40
1
 40
1
 10
308.320526
 20
393.015503
 30
0.0
 10
313.440063
 20
405.487244
 30
0.0
 10
319.559540
 20
417.483704
 30
0.0
 10
326.075653
 20
429.278770
 30
0.0
  0
SPLINE
  5
113
100
AcDbEntity
  8
0
 62
7
100
AcDbSpline
 70
8
 71
3
 72
8
 73
4
 74
0
 40
0
 40
0
 40
0
 40
0
 40
1
 40
1
 40
1
 40
1
 10
326.075653
 20
429.278770
 30
0.0
 10
326.235809
 20
429.568665
 30
0.0
 10
326.441681
 20
429.836929
 30
0.0
 10
326.650482
 20
430.095726
 30
0.0
  0
SPLINE
  5
114
100
AcDbEntity
  8
0
 62
7
100
AcDbSpline
 70
8
 71
3
 72
8
 73
4
 74
0
 40
0
 40
0
 40
0
 40
0
 40
1
 40
1
 40
1
 40
1
 10
326.650482
 20
430.095726
 30
0.0
 10
328.853729
 20
432.826569
 30
0.0
 10
330.286499
 20
437.203934
 30
0.0
 10
334.895477
 20
435.819942
 30
0.0
  0
SPLINE
  5
115
100
AcDbEntity
  8
0
 62
7
100
AcDbSpline
 70
8
 71
3
 72
8
 73
4
 74
0
 40
0
 40
0
 40
0
 40
0
 40
1
 40
1
 40
1
 40
1
 10
334.895477
 20
435.819942
 30
0.0
 10
339.750824
 20
434.361969
 30
0.0
 10
340.528900
 20
429.813026
 30
0.0
 10
340.186798
 20
425.596558
 30
0.0
  0
SPLINE
  5
116
100
AcDbEntity
  8
0
 62
7
100
AcDbSpline
 70
8
 71
3
 72
8
 73
4
 74
0
 40
0
 40
0
 40
0
 40
0
 40
1
 40
1
 40
1
 40
1
 10
340.186798
 20
425.596558
 30
0.0
 10
339.166687
 20
413.022911
 30
0.0
 10
337.327911
 20
400.534798
 30
0.0
 10
333.971466
 20
388.354828
 30
0.0
  0
SPLINE
  5
117
100
AcDbEntity
  8
0
 62
7
100
AcDbSpline
 70
8
 71
3
 72
8
 73
4
 74
0
 40
0
 40
0
 40
0
 40
0
 40
1
 40
1
 40
1
 40
1
 10
333.971466
 20
388.354828
 30
0.0
 10
327.881226
 20
366.254288
 30
0.0
 10
321.018005
 20
344.414795
 30
0.0
 10
312.705811
 20
323.011154
 30
0.0
  0
SPLINE
  5
118
100
AcDbEntity
  8
0
 62
7
100
AcDbSpline
 70
8
 71
3
 72
8
 73
4
 74
0
 40
0
 40
0
 40
0
 40
0
 40
1
 40
1
 40
1
 40
1
 10
312.705811
 20
323.011154
 30
0.0
 10
300.416718
 20
291.367310
 30
0.0
 10
286.900177
 20
260.253296
 30
0.0
 10
272.119415
 20
229.729767
 30
0.0
  0
SPLINE
  5
119
100
AcDbEntity
  8
0
 62
7
100
AcDbSpline
 70
8
 71
3
 72
8
 73
4
 74
0
 40
0
 40
0
 40
0
 40
0
 40
1
 40
1
 40
1
 40
1
 10
272.119415
 20
229.729767
 30
0.0
 10
256.682068
 20
197.850281
 30
0.0
 10
243.404678
 20
164.940704
 30
0.0
 10
226.337097
 20
133.844360
 30
0.0
  0
SPLINE
  5
11a
100
AcDbEntity
  8
0
 62
7
100
AcDbSpline
 70
8
 71
3
 72
8
 73
4
 74
0
 40
0
 40
0
 40
0
 40
0
 40
1
 40
1
 40
1
 40
1
 10
226.337097
 20
133.844360
 30
0.0
 10
226.120377
 20
133.449493
 30
0.0
 10
226.078125
 20
132.958923
 30
0.0
 10
225.807785
 20
131.984070
 30
0.0
  0
SPLINE
  5
11b
100
AcDbEntity
  8
0
 62
7
100
AcDbSpline
 70
8
 71
3
 72
8
 73
4
 74
0
 40
0
 40
0
 40
0
 40
0
 40
1
 40
1
 40
1
 40
1
 10
225.807785
 20
131.984070
 30
0.0
 10
238.839127
 20
139.822784
 30
0.0
 10
251.455154
 20
147.451202
 30
0.0
 10
264.109436
 20
155.015594
 30
0.0
  0
SPLINE
  5
11c
100
AcDbEntity
  8
0
 62
7
100
AcDbSpline
 70
8
 71
3
 72
8
 73
4
 74
0
 40
0
 40
0
 40
0
 40
0
 40
1
 40
1
 40
1
 40
1
 10
264.109436
 20
155.015594
 30
0.0
 10
293.104492
 20
172.347961
 30
0.0
 10
322.473633
 20
189.011047
 30
0.0
 10
352.524017
 20
204.459930
 30
0.0
  0
SPLINE
  5
11d
100
AcDbEntity
  8
0
 62
7
100
AcDbSpline
 70
8
 71
3
 72
8
 73
4
 74
0
 40
0
 40
0
 40
0
 40
0
 40
1
 40
1
 40
1
 40
1
 10
352.524017
 20
204.459930
 30
0.0
 10
362.438232
 20
209.556854
 30
0.0
 10
372.259918
 20
214.833832
 30
0.0
 10
382.122070
 20
220.031982
 30
0.0
  0
SPLINE
  5
11e
100
AcDbEntity
  8
0
 62
7
100
AcDbSpline
 70
8
 71
3
 72
8
 73
4
 74
0
 40
0
 40
0
 40
0
 40
0
 40
1
 40
1
 40
1
 40
1
 10
382.122070
 20
220.031982
 30
0.0
 10
384.942017
 20
221.518311
 30
0.0
 10
388.053528
 20
222.617279
 30
0.0
 10
390.007355
 20
219.255371
 30
0.0
  0
SPLINE
  5
11f
100
AcDbEntity
  8
0
 62
7
100
AcDbSpline
 70
8
 71
3
 72
8
 73
4
 74
0
 40
0
 40
0
 40
0
 40
0
 40
1
 40
1
 40
1
 40
1
 10
390.007355
 20
219.255371
 30
0.0
 10
392.111938
 20
215.633972
 30
0.0
 10
389.673920
 20
213.490936
 30
0.0
 10
386.533722
 20
211.825623
 30
0.0
  0
SPLINE
  5
120
100
AcDbEntity
  8
0
 62
7
100
AcDbSpline
 70
8
 71
3
 72
8
 73
4
 74
0
 40
0
 40
0
 40
0
 40
0
 40
1
 40
1
 40
1
 40
1
 10
386.533722
 20
211.825623
 30
0.0
 10
364.506836
 20
200.144440
 30
0.0
 10
342.355072
 20
188.686554
 30
0.0
 10
320.541168
 20
176.618744
 30
0.0
  0
SPLINE
  5
121
100
AcDbEntity
  8
0
 62
7
100
AcDbSpline
 70
8
 71
3
 72
8
 73
4
 74
0
 40
0
 40
0
 40
0
 40
0
 40
1
 40
1
 40
1
 40
1
 10
320.541168
 20
176.618744
 30
0.0
 10
289.855255
 20
159.642822
 30
0.0
 10
259.633331
 20
141.855255
 30
0.0
 10
230.113358
 20
122.900085
 30
0.0
  0
SPLINE
  5
122
100
AcDbEntity
  8
0
 62
7
100
AcDbSpline
 70
8
 71
3
 72
8
 73
4
 74
0
 40
0
 40
0
 40
0
 40
0
 40
1
 40
1
 40
1
 40
1
 10
230.113358
 20
122.900085
 30
0.0
 10
226.346207
 20
120.481140
 30
0.0
 10
223.119202
 20
117.243408
 30
0.0
 10
218.839447
 20
115.594879
 30
0.0
  0
SPLINE
  5
123
100
AcDbEntity
  8
0
 62
7
100
AcDbSpline
 70
8
 71
3
 72
8
 73
4
 74
0
 40
0
 40
0
 40
0
 40
0
 40
1
 40
1
 40
1
 40
1
 10
218.839447
 20
115.594879
 30
0.0
 10
216.074142
 20
114.529694
 30
0.0
 10
213.332047
 20
113.855743
 30
0.0
 10
210.937820
 20
116.183289
 30
0.0
  0
SPLINE
  5
124
100
AcDbEntity
  8
0
 62
7
100
AcDbSpline
 70
8
 71
3
 72
8
 73
4
 74
0
 40
0
 40
0
 40
0
 40
0
 40
1
 40
1
 40
1
 40
1
 10
210.937820
 20
116.183289
 30
0.0
 10
208.349869
 20
118.699097
 30
0.0
 10
209.026703
 20
121.287628
 30
0.0
 10
210.581833
 20
124.282623
 30
0.0
  0
SPLINE
  5
125
100
AcDbEntity
  8
0
 62
7
100
AcDbSpline
 70
8
 71
3
 72
8
 73
4
 74
0
 40
0
 40
0
 40
0
 40
0
 40
1
 40
1
 40
1
 40
1
 10
210.581833
 20
124.282623
 30
0.0
 10
219.164780
 20
140.812225
 30
0.0
 10
227.878174
 20
157.287598
 30
0.0
 10
235.912369
 20
174.085083
 30
0.0
  0
SPLINE
  5
126
100
AcDbEntity
  8
0
 62
7
100
AcDbSpline
 70
8
 71
3
 72
8
 73
4
 74
0
 40
0
 40
0
 40
0
 40
0
 40
1
 40
1
 40
1
 40
1
 10
235.912369
 20
174.085083
 30
0.0
 10
244.944687
 20
192.969330
 30
0.0
 10
252.992325
 20
212.324615
 30
0.0
 10
262.027313
 20
231.207520
 30
0.0
  0
SPLINE
  5
127
100
AcDbEntity
  8
0
 62
7
100
AcDbSpline
 70
8
 71
3
 72
8
 73
4
 74
0
 40
0
 40
0
 40
0
 40
0
 40
1
 40
1
 40
1
 40
1
 10
262.027313
 20
231.207520
 30
0.0
 10
275.096039
 20
258.520813
 30
0.0
 10
287.317505
 20
286.191940
 30
0.0
 10
298.845642
 20
314.182663
 30
0.0
  0
SPLINE
  5
128
100
AcDbEntity
  8
0
 62
7
100
AcDbSpline
 70
8
 71
3
 72
8
 73
4
 74
0
 40
0
 40
0
 40
0
 40
0
 40
1
 40
1
 40
1
 40
1
 10
298.845642
 20
314.182663
 30
0.0
 10
309.937134
 20
341.113205
 30
0.0
 10
319.142426
 20
368.656166
 30
0.0
 10
325.969666
 20
396.973335
 30
0.0
  0
SPLINE
  5
129
100
AcDbEntity
  8
0
 62
7
100
AcDbSpline
 70
8
 71
3
 72
8
 73
4
 74
0
 40
0
 40
0
 40
0
 40
0
 40
1
 40
1
 40
1
 40
1
 10
325.969666
 20
396.973335
 30
0.0
 10
327.090881
 20
401.623795
 30
0.0
 10
327.631378
 20
406.414253
 30
0.0
 10
327.891418
 20
411.435974
 30
0.0
  0
SPLINE
  5
12a
100
AcDbEntity
  8
0
 62
7
100
AcDbSpline
 70
8
 71
3
 72
8
 73
4
 74
0
 40
0
 40
0
 40
0
 40
0
 40
1
 40
1
 40
1
 40
1
 10
327.891418
 20
411.435974
 30
0.0
 10
325.077240
 20
406.025581
 30
0.0
 10
321.815430
 20
400.796165
 30
0.0
 10
319.539886
 20
395.168007
 30
0.0
  0
SPLINE
  5
12b
100
AcDbEntity
  8
0
 62
7
100
AcDbSpline
 70
8
 71
3
 72
8
 73
4
 74
0
 40
0
 40
0
 40
0
 40
0
 40
1
 40
1
 40
1
 40
1
 10
319.539886
 20
395.168007
 30
0.0
 10
314.436798
 20
382.546570
 30
0.0
 10
309.862701
 20
369.729225
 30
0.0
 10
305.455902
 20
356.825104
 30
0.0
  0
SPLINE
  5
12c
100
AcDbEntity
  8
0
 62
7
100
AcDbSpline
 70
8
 71
3
 72
8
 73
4
 74
0
 40
0
 40
0
 40
0
 40
0
 40
1
 40
1
 40
1
 40
1
 10
305.455902
 20
356.825104
 30
0.0
 10
297.662933
 20
334.005493
 30
0.0
 10
291.881073
 20
310.607010
 30
0.0
 10
284.321045
 20
287.742661
 30
0.0
  0
SPLINE
  5
12d
100
AcDbEntity
  8
0
 62
7
100
AcDbSpline
 70
8
 71
3
 72
8
 73
4
 74
0
 40
0
 40
0
 40
0
 40
0
 40
1
 40
1
 40
1
 40
1
 10
284.321045
 20
287.742661
 30
0.0
 10
283.075012
 20
283.974167
 30
0.0
 10
281.505066
 20
280.214996
 30
0.0
 10
279.462433
 20
276.826706
 30
0.0
  0
SPLINE
  5
12e
100
AcDbEntity
  8
0
 62
7
100
AcDbSpline
 70
8
 71
3
 72
8
 73
4
 74
0
 40
0
 40
0
 40
0
 40
0
 40
1
 40
1
 40
1
 40
1
 10
279.462433
 20
276.826706
 30
0.0
 10
274.164795
 20
268.039108
 30
0.0
 10
266.710388
 20
267.147614
 30
0.0
 10
259.215240
 20
274.146225
 30
0.0
  0
SPLINE
  5
12f
100
AcDbEntity
  8
0
 62
7
100
AcDbSpline
 70
8
 71
3
 72
8
 73
4
 74
0
 40
0
 40
0
 40
0
 40
0
 40
1
 40
1
 40
1
 40
1
 10
259.215240
 20
274.146225
 30
0.0
 10
256.781464
 20
276.418747
 30
0.0
 10
254.491287
 20
278.845383
 30
0.0
 10
252.144547
 20
281.210587
 30
0.0
  0
SPLINE
  5
130
100
AcDbEntity
  8
0
 62
7
100
AcDbSpline
 70
8
 71
3
 72
8
 73
4
 74
0
 40
0
 40
0
 40
0
 40
0
 40
1
 40
1
 40
1
 40
1
 10
252.144547
 20
281.210587
 30
0.0
 10
250.743576
 20
282.622589
 30
0.0
 10
249.358170
 20
284.048477
 30
0.0
 10
246.845718
 20
284.289444
 30
0.0
  0
SPLINE
  5
131
100
AcDbEntity
  8
0
 62
7
100
AcDbSpline
 70
8
 71
3
 72
8
 73
4
 74
0
 40
0
 40
0
 40
0
 40
0
 40
1
 40
1
 40
1
 40
1
 10
246.845718
 20
284.289444
 30
0.0
 10
245.807480
 20
280.291519
 30
0.0
 10
246.402664
 20
276.288834
 30
0.0
 10
246.710419
 20
272.506866
 30
0.0
  0
SPLINE
  5
132
100
AcDbEntity
  8
0
 62
7
100
AcDbSpline
 70
8
 71
3
 72
8
 73
4
 74
0
 40
0
 40
0
 40
0
 40
0
 40
1
 40
1
 40
1
 40
1
 10
246.710419
 20
272.506866
 30
0.0
 10
248.785919
 20
247.001694
 30
0.0
 10
246.641632
 20
222.048218
 30
0.0
 10
237.327209
 20
198.052704
 30
0.0
  0
SPLINE
  5
133
100
AcDbEntity
  8
0
 62
7
100
AcDbSpline
 70
8
 71
3
 72
8
 73
4
 74
0
 40
0
 40
0
 40
0
 40
0
 40
1
 40
1
 40
1
 40
1
 10
237.327209
 20
198.052704
 30
0.0
 10
234.839539
 20
191.644043
 30
0.0
 10
232.449905
 20
184.921722
 30
0.0
 10
226.448532
 20
180.555328
 30
0.0
  0
SPLINE
  5
134
100
AcDbEntity
  8
0
 62
7
100
AcDbSpline
 70
8
 71
3
 72
8
 73
4
 74
0
 40
0
 40
0
 40
0
 40
0
 40
1
 40
1
 40
1
 40
1
 10
226.448532
 20
180.555328
 30
0.0
 10
220.760513
 20
176.416962
 30
0.0
 10
214.272156
 20
176.778381
 30
0.0
 10
209.273697
 20
181.804047
 30
0.0
  0
SPLINE
  5
135
100
AcDbEntity
  8
0
 62
7
100
AcDbSpline
 70
8
 71
3
 72
8
 73
4
 74
0
 40
0
 40
0
 40
0
 40
0
 40
1
 40
1
 40
1
 40
1
 10
209.273697
 20
181.804047
 30
0.0
 10
203.154831
 20
187.956207
 30
0.0
 10
200.260727
 20
195.861572
 30
0.0
 10
198.843765
 20
204.073669
 30
0.0
  0
SPLINE
  5
136
100
AcDbEntity
  8
0
 62
7
100
AcDbSpline
 70
8
 71
3
 72
8
 73
4
 74
0
 40
0
 40
0
 40
0
 40
0
 40
1
 40
1
 40
1
 40
1
 10
198.843765
 20
204.073669
 30
0.0
 10
195.690445
 20
222.348938
 30
0.0
 10
197.114410
 20
240.385925
 30
0.0
 10
203.532562
 20
257.890305
 30
0.0
  0
SPLINE
  5
137
100
AcDbEntity
  8
0
 62
7
100
AcDbSpline
 70
8
 71
3
 72
8
 73
4
 74
0
 40
0
 40
0
 40
0
 40
0
 40
1
 40
1
 40
1
 40
1
 10
203.532562
 20
257.890305
 30
0.0
 10
208.764297
 20
272.158951
 30
0.0
 10
216.597839
 20
284.415237
 30
0.0
 10
230.591492
 20
291.645370
 30
0.0
  0
SPLINE
  5
138
100
AcDbEntity
  8
0
 62
7
100
AcDbSpline
 70
8
 71
3
 72
8
 73
4
 74
0
 40
0
 40
0
 40
0
 40
0
 40
1
 40
1
 40
1
 40
1
 10
230.591492
 20
291.645370
 30
0.0
 10
233.520767
 20
293.158829
 30
0.0
 10
234.655975
 20
294.904602
 30
0.0
 10
233.689041
 20
298.311829
 30
0.0
  0
SPLINE
  5
139
100
AcDbEntity
  8
0
 62
7
100
AcDbSpline
 70
8
 71
3
 72
8
 73
4
 74
0
 40
0
 40
0
 40
0
 40
0
 40
1
 40
1
 40
1
 40
1
 10
233.689041
 20
298.311829
 30
0.0
 10
229.515945
 20
313.016541
 30
0.0
 10
225.816681
 20
327.900452
 30
0.0
 10
216.446030
 20
340.452164
 30
0.0
  0
SPLINE
  5
13a
100
AcDbEntity
  8
0
 62
7
100
AcDbSpline
 70
8
 71
3
 72
8
 73
4
 74
0
 40
0
 40
0
 40
0
 40
0
 40
1
 40
1
 40
1
 40
1
 10
216.446030
 20
340.452164
 30
0.0
 10
214.864944
 20
342.570023
 30
0.0
 10
212.995468
 20
344.538635
 30
0.0
 10
210.988281
 20
346.260284
 30
0.0
  0
SPLINE
  5
13b
100
AcDbEntity
  8
0
 62
7
100
AcDbSpline
 70
8
 71
3
 72
8
 73
4
 74
0
 40
0
 40
0
 40
0
 40
0
 40
1
 40
1
 40
1
 40
1
 10
210.988281
 20
346.260284
 30
0.0
 10
204.118683
 20
352.152649
 30
0.0
 10
196.832352
 20
352.143112
 30
0.0
 10
189.777054
 20
346.441696
 30
0.0
  0
SPLINE
  5
13c
100
AcDbEntity
  8
0
 62
7
100
AcDbSpline
 70
8
 71
3
 72
8
 73
4
 74
0
 40
0
 40
0
 40
0
 40
0
 40
1
 40
1
 40
1
 40
1
 10
189.777054
 20
346.441696
 30
0.0
 10
182.815170
 20
340.815781
 30
0.0
 10
178.519882
 20
333.224625
 30
0.0
 10
175.461365
 20
325.146774
 30
0.0
  0
SPLINE
  5
13d
100
AcDbEntity
  8
0
 62
7
100
AcDbSpline
 70
8
 71
3
 72
8
 73
4
 74
0
 40
0
 40
0
 40
0
 40
0
 40
1
 40
1
 40
1
 40
1
 10
175.461365
 20
325.146774
 30
0.0
 10
167.350388
 20
303.724869
 30
0.0
 10
165.130066
 20
281.391434
 30
0.0
 10
165.151642
 20
258.556030
 30
0.0
  0
SPLINE
  5
13e
100
AcDbEntity
  8
0
 62
7
100
AcDbSpline
 70
8
 71
3
 72
8
 73
4
 74
0
 40
0
 40
0
 40
0
 40
0
 40
1
 40
1
 40
1
 40
1
 10
165.151642
 20
258.556030
 30
0.0
 10
165.175323
 20
233.503052
 30
0.0
 10
169.037979
 20
209.267365
 30
0.0
 10
177.231735
 20
185.685577
 30
0.0
  0
SPLINE
  5
13f
100
AcDbEntity
  8
0
 62
7
100
AcDbSpline
 70
8
 71
3
 72
8
 73
4
 74
0
 40
0
 40
0
 40
0
 40
0
 40
1
 40
1
 40
1
 40
1
 10
177.231735
 20
185.685577
 30
0.0
 10
180.412460
 20
176.531342
 30
0.0
 10
184.999542
 20
168.032227
 30
0.0
 10
190.855881
 20
159.846313
 30
0.0
  0
SPLINE
  5
140
100
AcDbEntity
  8
0
 62
7
100
AcDbSpline
 70
8
 71
3
 72
8
 73
4
 74
0
 40
0
 40
0
 40
0
 40
0
 40
1
 40
1
 40
1
 40
1
 10
209.388504
 20
244.173843
 30
0.0
 10
206.997223
 20
233.922455
 30
0.0
 10
206.460312
 20
223.501770
 30
0.0
 10
207.442230
 20
213.091675
 30
0.0
  0
SPLINE
  5
141
100
AcDbEntity
  8
0
 62
7
100
AcDbSpline
 70
8
 71
3
 72
8
 73
4
 74
0
 40
0
 40
0
 40
0
 40
0
 40
1
 40
1
 40
1
 40
1
 10
207.442230
 20
213.091675
 30
0.0
 10
208.173965
 20
205.334076
 30
0.0
 10
209.431198
 20
197.514404
 30
0.0
 10
214.036667
 20
190.863983
 30
0.0
  0
SPLINE
  5
142
100
AcDbEntity
  8
0
 62
7
100
AcDbSpline
 70
8
 71
3
 72
8
 73
4
 74
0
 40
0
 40
0
 40
0
 40
0
 40
1
 40
1
 40
1
 40
1
 10
214.036667
 20
190.863983
 30
0.0
 10
217.261337
 20
186.207458
 30
0.0
 10
220.058136
 20
186.358856
 30
0.0
 10
223.231735
 20
191.025238
 30
0.0
  0
SPLINE
  5
143
100
AcDbEntity
  8
0
 62
7
100
AcDbSpline
 70
8
 71
3
 72
8
 73
4
 74
0
 40
0
 40
0
 40
0
 40
0
 40
1
 40
1
 40
1
 40
1
 10
223.231735
 20
191.025238
 30
0.0
 10
225.583450
 20
194.483154
 30
0.0
 10
227.426880
 20
198.178680
 30
0.0
 10
228.839081
 20
202.123169
 30
0.0
  0
SPLINE
  5
144
100
AcDbEntity
  8
0
 62
7
100
AcDbSpline
 70
8
 71
3
 72
8
 73
4
 74
0
 40
0
 40
0
 40
0
 40
0
 40
1
 40
1
 40
1
 40
1
 10
228.839081
 20
202.123169
 30
0.0
 10
236.638000
 20
223.906891
 30
0.0
 10
238.776093
 20
246.425674
 30
0.0
 10
237.782776
 20
269.380463
 30
0.0
  0
SPLINE
  5
145
100
AcDbEntity
  8
0
 62
7
100
AcDbSpline
 70
8
 71
3
 72
8
 73
4
 74
0
 40
0
 40
0
 40
0
 40
0
 40
1
 40
1
 40
1
 40
1
 10
237.782776
 20
269.380463
 30
0.0
 10
237.582870
 20
273.999802
 30
0.0
 10
237.317627
 20
278.576065
 30
0.0
 10
235.956055
 20
283.686417
 30
0.0
  0
SPLINE
  5
146
100
AcDbEntity
  8
0
 62
7
100
AcDbSpline
 70
8
 71
3
 72
8
 73
4
 74
0
 40
0
 40
0
 40
0
 40
0
 40
1
 40
1
 40
1
 40
1
 10
235.956055
 20
283.686417
 30
0.0
 10
230.481140
 20
280.753983
 30
0.0
 10
225.716827
 20
277.731400
 30
0.0
 10
222.200958
 20
272.923401
 30
0.0
  0
SPLINE
  5
147
100
AcDbEntity
  8
0
 62
7
100
AcDbSpline
 70
8
 71
3
 72
8
 73
4
 74
0
 40
0
 40
0
 40
0
 40
0
 40
1
 40
1
 40
1
 40
1
 10
222.200958
 20
272.923401
 30
0.0
 10
216.031891
 20
264.487091
 30
0.0
 10
211.722626
 20
255.236801
 30
0.0
 10
209.388504
 20
244.173843
 30
0.0
  0
LWPOLYLINE
  5
148
100
AcDbEntity
  8
0
 62
7
100
AcDbPolyline
 90
1
 70
1
 10
209.388504
 20
244.173843
 30
0.0
  0
ENDSEC
  0
SECTION
  2
OBJECTS
  0
DICTIONARY
  5
C
330
0
100
AcDbDictionary
  3
ACAD_GROUP
350
D
  3
ACAD_MLINESTYLE
350
17
  0
DICTIONARY
  5
D
330
C
100
AcDbDictionary
  0
DICTIONARY
  5
1A
330
C
100
AcDbDictionary
  0
DICTIONARY
  5
17
330
C
100
AcDbDictionary
  3
STANDARD
350
18
  0
DICTIONARY
  5
19
330
C
100
AcDbDictionary
  0
ENDSEC
  0
EOF
